<svg xmlns="http://www.w3.org/2000/svg" viewBox="0 0 900 675" role="img" aria-labelledby="title desc">
  <title id="title">Campera denim vintage</title>
  <desc id="desc">Ilustracion de campera de jean celeste sobre fondo crema.</desc>
  <rect width="900" height="675" fill="#f6f1e7"/>
  <rect x="75" y="70" width="750" height="535" rx="28" fill="#d8cebd"/>
  <path d="M328 122h244l68 98 72 305-122 32-42-190v200H352V367l-42 190-122-32 72-305z" fill="#7292a2"/>
  <path d="M374 122c17 45 43 68 76 68s59-23 76-68" fill="none" stroke="#37413d" stroke-width="12"/>
  <path d="M352 246h196M450 190v276M296 254l56 42M604 254l-56 42" stroke="#37413d" stroke-width="10" stroke-linecap="round"/>
  <circle cx="450" cy="270" r="9" fill="#ede6d8"/>
  <circle cx="450" cy="325" r="9" fill="#ede6d8"/>
  <circle cx="450" cy="380" r="9" fill="#ede6d8"/>
</svg>

